HIERARCHY
ROOT Hips
{
  OFFSET 196.542 91.4413 189.699
  CHANNELS 6 Xposition Yposition Zposition Zrotation Xrotation Yrotation
  JOINT ToSpine
  {
    OFFSET -0.0105055 1.38907 -7.13956
    CHANNELS 3 Zrotation Xrotation Yrotation
    JOINT Spine
    {
      OFFSET 0.0105055 10 1
      CHANNELS 3 Zrotation Xrotation Yrotation
      JOINT Spine1
      {
        OFFSET 0 12 1.60637
        CHANNELS 3 Zrotation Xrotation Yrotation
        JOINT Neck
        {
          OFFSET 0 27 2.26658
          CHANNELS 3 Zrotation Xrotation Yrotation
          JOINT Head
          {
            OFFSET 0 9 2.12705
            CHANNELS 3 Zrotation Xrotation Yrotation
            End Site
            {
              OFFSET 0 11 2
            }
          }
        }
        JOINT LeftShoulder
        {
          OFFSET 8 19.6109 2.86452
          CHANNELS 3 Zrotation Xrotation Yrotation
          JOINT LeftArm
          {
            OFFSET 12 1 0.681055
            CHANNELS 3 Zrotation Xrotation Yrotation
            JOINT LeftForeArm
            {
              OFFSET 19 0 -1.52608
              CHANNELS 3 Zrotation Xrotation Yrotation
              JOINT LeftHand
              {
                OFFSET 23 0 0
                CHANNELS 3 Zrotation Xrotation Yrotation
                End Site
                {
                  OFFSET 10 0 0
                }
              }
            }
          }
        }
        JOINT RightShoulder
        {
          OFFSET -8 19.6109 2.86452
          CHANNELS 3 Zrotation Xrotation Yrotation
          JOINT RightArm
          {
            OFFSET -12 1 0.681055
            CHANNELS 3 Zrotation Xrotation Yrotation
            JOINT RightForeArm
            {
              OFFSET -19 0 -1.52608
              CHANNELS 3 Zrotation Xrotation Yrotation
              JOINT RightHand
              {
                OFFSET -23 0 0
                CHANNELS 3 Zrotation Xrotation Yrotation
                End Site
                {
                  OFFSET -10 0 0
                }
              }
            }
          }
        }
      }
    }
  }
  JOINT LeftUpLeg
  {
    OFFSET 9 -7.17245 0
    CHANNELS 3 Zrotation Xrotation Yrotation
    JOINT LeftLeg
    {
      OFFSET 0 -44.1113 0
      CHANNELS 3 Zrotation Xrotation Yrotation
      JOINT LeftFoot
      {
        OFFSET 0 -36.1829 0
        CHANNELS 3 Zrotation Xrotation Yrotation
        JOINT LeftToeBase
        {
          OFFSET 0 -4.84184 13
          CHANNELS 3 Zrotation Xrotation Yrotation
          End Site
          {
            OFFSET 0 1 6
          }
        }
      }
    }
  }
  JOINT RightUpLeg
  {
    OFFSET -9 -7.17245 0
    CHANNELS 3 Zrotation Xrotation Yrotation
    JOINT RightLeg
    {
      OFFSET 0 -44.0551 0
      CHANNELS 3 Zrotation Xrotation Yrotation
      JOINT RightFoot
      {
        OFFSET 0 -36.1469 0
        CHANNELS 3 Zrotation Xrotation Yrotation
        JOINT RightToeBase
        {
          OFFSET 0 -4.92256 13
          CHANNELS 3 Zrotation Xrotation Yrotation
          End Site
          {
            OFFSET 0 1 6
          }
        }
      }
    }
  }
}
MOTION
Frames:	12
Frame Time:	0.0333333
196.542 91.4413 189.699 3.20139 6.70891 -141.263 0 0 0 4.75662 4.93403 -5.51349 5.33937 2.5217 -7.11364 -3.521 -1.24902 13.9188 -2.0847 0.936769 13.0833 -29.0755 3.26441 -5.76568 -31.1173 28.6403 -15.1243 -153.234 -3.461 -96.8252 -23.3615 0.423916 -2.05027 23.7357 5.25915 13.9066 45.5609 -2.03865 -24.3647 -17.5363 2.6197 81.7696 -4.82316 -0.291795 6.92014 6.84141 13.3247 18.6178 -2.66182e-007 82.7214 18.5834 21.2714 -9.79697 1.84411 1.55188 -20.2587 -2.69352 9.15001 -29.5817 -0.359931 -1.1813e-007 40.8513 5.11395 -16.7467 2.01426 0.296513 2.78991 -8.69602 -9.69883 
190.86 89.6265 182.166 4.64501 9.25522 -144.238 0 0 0 9.0756 6.94194 -1.05787 2.48931 2.26833 -1.9999 -2.35879 -4.58792 10.5397 -3.4261 3.27233 10.4208 -32.0046 3.71401 -6.23743 -33.2772 28.0269 -3.97203 -149.049 -4.87769 -98.07 -20.5222 0.0477864 -0.26397 26.6357 5.35535 12.7381 42.9936 -3.8501 -7.96318 -15.763 1.53295 84.5861 -5.22965 -0.305848 6.68946 13.5846 1.54049 19.8465 180 81.9495 -164.254 25.8631 -14.6048 3.37071 1.58247 -22.2039 -1.2644 13.3562 -26.0034 1.78502 2.01892e-007 51.9616 3.09859 -18.9633 -11.1802 -1.87303 3.31263 -11.7749 -7.85654 
184.86 89.0526 175.431 4.52688 10.3712 -143.907 0 0 0 10.8358 9.1223 0.920051 0.398836 2.51076 0.667345 -0.203836 -7.24619 7.87964 -4.32063 4.27352 8.59942 -29.2814 3.2137 -5.57029 -41.3798 27.3087 12.5543 -150.164 -0.897494 -91.5644 -22.3937 0.378912 -1.91403 27.2398 6.02412 14.423 40.4772 -6.45653 7.81493 -13.7644 1.17724 85.2058 -6.5462 -0.423699 7.39855 15.7167 -13.5048 16.4009 180 76.0784 -172.732 31.8852 -17.0377 4.9002 1.58442 -21.7466 -1.8885 12.9307 -18.8997 -0.183992 -2.12777e-009 54.487 2.03183 -24.0869 -18.2635 -3.92829 4.19497 -16.1082 -7.40396 
178.22 89.354 168.596 3.7843 8.0374 -139.142 0 0 0 9.41471 8.4681 2.22764 0.433399 1.3912 2.23797 0.344136 -6.9797 4.06873 -4.30483 3.85497 5.07206 -28.3164 2.92273 -4.97713 -43.2526 28.5552 24.0567 -150.231 1.86667 -86.7406 -21.4797 0.340205 -1.79351 25.4653 5.71473 14.4207 39.8199 -10.4182 20.3591 -16.509 0.827175 87.2114 -8.04496 -0.480811 6.82931 10.5476 -31.116 9.21194 180 80.8491 -172.349 28.211 -17.5736 4.4487 1.64589 -22.2106 -2.69302 7.7991 -12.1019 -7.99338 -2.28235e-009 52.4304 3.52918 -27.7264 -24.1676 -6.0488 4.52515 -18.0004 -9.07623 
170.508 90.7749 160.686 2.09244 7.12615 -139.026 0 0 0 12.0654 8.8667 5.64146 -5.8452 0.416193 7.26979 2.59152 -5.44023 -0.714598 -4.09387 4.063 1.00572 -25.1509 2.90252 -5.73776 -45.3052 29.5389 34.8508 -148.924 4.76796 -82.1472 -20.9794 0.157955 -0.853093 20.5139 4.84619 14.3398 43.9796 -15.4913 24.0496 -16.2412 -0.837813 92.8735 -7.18028 -0.467774 7.44507 6.59501 -38.0452 7.80319 4.95976e-006 83.6247 11.5918 27.3201 -17.1812 4.20531 1.61575 -20.0435 -3.84664 4.87783 1.22754 -12.0433 -2.09675e-007 41.5165 6.1876 -32.5925 -22.875 -6.76988 5.5787 -23.1711 -8.64069 
162.079 93.031 151.873 0.786557 7.02148 -138.694 0 0 0 15.6406 9.96996 8.56093 -13.2463 -0.866095 11.9034 6.79498 -7.11272 -5.65165 -4.0693 6.86862 -2.66749 -20.7839 2.63245 -6.15024 -45.3681 29.4683 41.6817 -148.72 7.17209 -78.3873 -20.8414 0.124718 -0.678148 15.6831 3.88249 13.6432 47.4401 -18.623 21.9851 -15.0947 -2.86975 100.516 -6.96297 -0.443907 7.2867 3.3473 -37.715 6.45723 -1.18112e-006 60.7586 13.4669 24.9583 -15.1602 3.37388 1.76641 -18.7392 -6.45306 4.10788 14.4542 -13.6863 0.109796 28.8158 9.43211 -27.6618 -10.3247 -2.54838 7.96508 -32.1517 -5.80839 
153.097 95.1571 142.172 0.442658 6.83729 -138.693 0 0 0 17.1641 7.74372 11.8518 -16.5882 0.398666 15.677 9.18951 -10.9914 -9.32875 -3.49311 10.8231 -5.83739 -16.9797 2.31568 -6.25569 -45.2329 27.5761 45.9246 -148.854 9.22455 -75.1442 -18.8211 -0.210086 1.26753 9.39847 2.78429 12.9732 48.4165 -18.7143 17.7731 -13.0394 -3.94549 106.547 -5.75333 -0.357678 7.10893 2.01897 -32.4029 8.15319 -2.1803e-007 34.158 5.44028 20.8293 -6.28036 1.15544 1.77559 -20.0411 -6.33513 4.78329 24.2085 -9.14646 0.628887 19.7832 8.28651 -24.4432 7.3001 1.58326 7.26767 -29.9803 -6.8858 
144.253 95.4433 132.958 0.646947 5.30545 -139.401 0 0 0 18.1266 1.9311 14.3586 -19.8422 4.6955 18.3383 12.4793 -15.0244 -10.7566 -4.45653 13.1317 -6.4364 -11.1067 1.68872 -5.69435 -48.8351 22.6647 50.417 -146.782 12.3597 -71.899 -20.515 -0.320377 1.77025 4.91081 1.99579 12.0156 46.9491 -13.7454 16.6343 -12.2042 -4.43813 109.686 -4.77708 -0.290599 6.95824 1.11457 -29.204 4.82643 -2.93592 14.9095 0.550814 14.9914 -1.85572 0.244189 1.81306 -17.4058 -7.17318 2.96589 28.3909 -10.7953 0.755544 21.1221 9.17687 -27.378 7.74718 1.88969 4.61972 -18.2679 -8.03664 
136.32 95.5814 125.093 2.21128 5.9953 -139.898 0 0 0 20.2735 -1.80773 15.0887 -19.9537 7.30454 18.7542 12.4376 -13.9824 -10.4657 -3.80393 12.6906 -6.32359 -12.2582 1.77631 -5.65171 -49.2318 17.6833 56.4094 -148.083 14.352 -68.2987 -18.4897 -0.618229 3.79687 4.66315 1.98662 12.2118 44.9127 -6.19262 13.0183 -13.2113 -5.35342 111.674 -2.97662 -0.218742 8.40396 2.45553 -28.6215 2.2736 -1.55098 10.9471 -5.60776 10.9803 -5.71175 0.54944 0.912921 -3.27523 -3.30451 4.1188 29.9736 -12.6121 0.676717 26.1151 3.94486 -24.7679 3.74791 0.82321 4.7238 -19.5199 -10.9096 
128.435 95.0351 117.444 3.2844 9.36119 -140.511 0 0 0 21.8817 -1.8604 14.009 -17.537 7.96627 17.3721 12.5369 -13.2943 -9.29361 -4.44749 13.0247 -4.93158 -15.0448 1.80943 -4.746 -50.2843 14.7873 55.7744 -148.879 13.7323 -68.5354 -18.0918 -0.409499 2.57171 8.75686 2.54226 12.0855 43.1488 1.92585 5.93344 -11.7578 -4.67265 111.374 -1.80584 -0.146903 9.30066 5.90176 -25.5289 6.13594 -1.85386 14.8993 -7.92862 15.12 -2.65144 0.351956 1.23286 -13.6164 -2.62109 5.28227 29.8743 -16.1503 -3.64495e-008 36.4078 -0.697658 -23.7921 4.0754 0.858875 4.92345 -19.5068 -7.08616 
121.252 94.8514 110.301 0.64276 11.1932 -141.287 0 0 0 17.9209 0.193946 12.0895 -14.5005 8.43564 15.464 13.0157 -11.2207 -7.24094 -3.96 11.9592 -2.94427 -17.7935 1.91307 -4.31741 -52.1666 12.6882 50.6223 -144.381 12.2842 -73.46 -19.5622 -0.29688 1.72201 12.3601 3.35442 13.6152 46.189 5.80046 -4.55513 -7.80341 -2.22796 105.837 2.06365 0.167823 9.29747 5.83715 -20.3735 11.4632 -2.12148 20.8322 -10.3905 12.1507 4.9893 -0.531362 1.41738 -14.5594 -3.85427 1.8627 27.8542 -15.2857 -4.97147e-008 48.0415 -6.93532 -26.8675 3.88703 0.928777 4.31226 -16.7969 -8.35759 
114.259 93.9846 103.547 -2.85773 9.656 -141.836 0 0 0 11.8477 1.0049 10.0374 -13.3039 8.34781 13.1131 15.4069 -8.05412 -5.16344 -5.50986 8.06176 0.162021 -21.5209 1.97588 -3.56996 -50.1583 13.5292 40.801 -147.484 7.84632 -77.9122 -21.1329 0.0116155 -0.0622685 16.0759 3.779 12.9326 50.0044 7.91642 -11.1764 -3.26961 -0.151125 92.6435 2.63281 0.162234 7.05099 2.84731 -20.2724 19.5007 3.64571e-007 34.5694 -15.8786 16.9314 3.12397 -0.465082 1.09421 -11.5426 -2.31368 -4.38648 21.3734 -12.6436 -7.17781e-007 60.0472 -10.9022 -29.0296 -0.327731 -0.0848475 4.53071 -17.9472 -8.65892 
